<mxfile host="app.diagrams.net" modified="2023-11-15T04:59:22.552Z" agent="Mozilla/5.0 (Windows NT 10.0; Win64; x64) AppleWebKit/537.36 (KHTML, like Gecko) Chrome/119.0.0.0 Safari/537.36" etag="z4c0cFhTJ3kk9kQMsnD5" version="22.1.1" type="google" pages="4">
  <diagram name="1 Contexto" id="bKov9EWNMW7WpkMHJopi">
    <mxGraphModel grid="1" page="1" gridSize="10" guides="1" tooltips="1" connect="1" arrows="1" fold="1" pageScale="1" pageWidth="827" pageHeight="1169" math="0" shadow="0">
      <root>
        <mxCell id="0" />
        <mxCell id="1" parent="0" />
        <object placeholders="1" c4Name="Sistema Bolsa De valores" c4Type="Software System" c4Description="Encargado de manejar la bolsa de valores y las acciones que adquiera un usuario.&#xa;" label="&lt;font style=&quot;font-size: 16px&quot;&gt;&lt;b&gt;%c4Name%&lt;/b&gt;&lt;/font&gt;&lt;div&gt;[%c4Type%]&lt;/div&gt;&lt;br&gt;&lt;div&gt;&lt;font style=&quot;font-size: 11px&quot;&gt;&lt;font color=&quot;#cccccc&quot;&gt;%c4Description%&lt;/font&gt;&lt;/div&gt;" id="acwurtQKw7CFkIKZwjb7-1">
          <mxCell style="rounded=1;whiteSpace=wrap;html=1;labelBackgroundColor=none;fillColor=#1061B0;fontColor=#ffffff;align=center;arcSize=10;strokeColor=#0D5091;metaEdit=1;resizable=0;points=[[0.25,0,0],[0.5,0,0],[0.75,0,0],[1,0.25,0],[1,0.5,0],[1,0.75,0],[0.75,1,0],[0.5,1,0],[0.25,1,0],[0,0.75,0],[0,0.5,0],[0,0.25,0]];" vertex="1" parent="1">
            <mxGeometry x="330" y="270" width="240" height="120" as="geometry" />
          </mxCell>
        </object>
        <object placeholders="1" c4Name="Cliente" c4Type="Person" c4Description="Interesado en comprar acciones" label="&lt;font style=&quot;font-size: 16px&quot;&gt;&lt;b&gt;%c4Name%&lt;/b&gt;&lt;/font&gt;&lt;div&gt;[%c4Type%]&lt;/div&gt;&lt;br&gt;&lt;div&gt;&lt;font style=&quot;font-size: 11px&quot;&gt;&lt;font color=&quot;#cccccc&quot;&gt;%c4Description%&lt;/font&gt;&lt;/div&gt;" id="acwurtQKw7CFkIKZwjb7-2">
          <mxCell style="html=1;fontSize=11;dashed=0;whiteSpace=wrap;fillColor=#083F75;strokeColor=#06315C;fontColor=#ffffff;shape=mxgraph.c4.person2;align=center;metaEdit=1;points=[[0.5,0,0],[1,0.5,0],[1,0.75,0],[0.75,1,0],[0.5,1,0],[0.25,1,0],[0,0.75,0],[0,0.5,0]];resizable=0;" vertex="1" parent="1">
            <mxGeometry x="350" y="20" width="200" height="180" as="geometry" />
          </mxCell>
        </object>
        <object placeholders="1" c4Type="Relationship" c4Description="usa" label="&lt;div style=&quot;text-align: left&quot;&gt;&lt;div style=&quot;text-align: center&quot;&gt;&lt;b&gt;%c4Description%&lt;/b&gt;&lt;/div&gt;" id="m8U_wy69B4LRMMiC_FYj-1">
          <mxCell style="endArrow=blockThin;html=1;fontSize=10;fontColor=#404040;strokeWidth=1;endFill=1;strokeColor=#828282;elbow=vertical;metaEdit=1;endSize=14;startSize=14;jumpStyle=arc;jumpSize=16;rounded=0;edgeStyle=orthogonalEdgeStyle;exitX=0.5;exitY=1;exitDx=0;exitDy=0;exitPerimeter=0;entryX=0.5;entryY=0;entryDx=0;entryDy=0;entryPerimeter=0;" edge="1" parent="1" source="acwurtQKw7CFkIKZwjb7-2" target="acwurtQKw7CFkIKZwjb7-1">
            <mxGeometry width="240" relative="1" as="geometry">
              <mxPoint x="290" y="300" as="sourcePoint" />
              <mxPoint x="530" y="300" as="targetPoint" />
            </mxGeometry>
          </mxCell>
        </object>
      </root>
    </mxGraphModel>
  </diagram>
  <diagram id="CYJX8lzG2c6bExLbn7Pf" name="2 Contenedores">
    <mxGraphModel grid="1" page="1" gridSize="10" guides="1" tooltips="1" connect="1" arrows="1" fold="1" pageScale="1" pageWidth="827" pageHeight="1169" math="0" shadow="0">
      <root>
        <mxCell id="0" />
        <mxCell id="1" parent="0" />
        <object placeholders="1" c4Type="Base de Datos Bolsa de Valores" c4Container="Database" c4Technology="" c4Description="Contiene la información de la bolsa de valores y sus acciones." label="&lt;font style=&quot;font-size: 16px&quot;&gt;&lt;b&gt;%c4Type%&lt;/b&gt;&lt;/font&gt;&lt;div&gt;[%c4Container%:&amp;nbsp;%c4Technology%]&lt;/div&gt;&lt;br&gt;&lt;div&gt;&lt;font style=&quot;font-size: 11px&quot;&gt;&lt;font color=&quot;#E6E6E6&quot;&gt;%c4Description%&lt;/font&gt;&lt;/div&gt;" id="v8b1XL35mKmCZnruBkDe-2">
          <mxCell style="shape=cylinder3;size=15;whiteSpace=wrap;html=1;boundedLbl=1;rounded=0;labelBackgroundColor=none;fillColor=#23A2D9;fontSize=12;fontColor=#ffffff;align=center;strokeColor=#0E7DAD;metaEdit=1;points=[[0.5,0,0],[1,0.25,0],[1,0.5,0],[1,0.75,0],[0.5,1,0],[0,0.75,0],[0,0.5,0],[0,0.25,0]];resizable=0;" vertex="1" parent="1">
            <mxGeometry x="80" y="340" width="240" height="120" as="geometry" />
          </mxCell>
        </object>
        <object placeholders="1" c4Name="Sistema Bolsa de Valores" c4Type="ContainerScopeBoundary" c4Application="Container" label="&lt;font style=&quot;font-size: 16px&quot;&gt;&lt;b&gt;&lt;div style=&quot;text-align: left&quot;&gt;%c4Name%&lt;/div&gt;&lt;/b&gt;&lt;/font&gt;&lt;div style=&quot;text-align: left&quot;&gt;[%c4Application%]&lt;/div&gt;" id="vD2tLwO2nFDDCESPekmK-1">
          <mxCell style="rounded=1;fontSize=11;whiteSpace=wrap;html=1;dashed=1;arcSize=20;fillColor=none;strokeColor=#666666;fontColor=#333333;labelBackgroundColor=none;align=left;verticalAlign=bottom;labelBorderColor=none;spacingTop=0;spacing=10;dashPattern=8 4;metaEdit=1;rotatable=0;perimeter=rectanglePerimeter;noLabel=0;labelPadding=0;allowArrows=0;connectable=0;expand=0;recursiveResize=0;editable=1;pointerEvents=0;absoluteArcSize=1;points=[[0.25,0,0],[0.5,0,0],[0.75,0,0],[1,0.25,0],[1,0.5,0],[1,0.75,0],[0.75,1,0],[0.5,1,0],[0.25,1,0],[0,0.75,0],[0,0.5,0],[0,0.25,0]];" vertex="1" parent="1">
            <mxGeometry x="50" y="80" width="690" height="440" as="geometry" />
          </mxCell>
        </object>
        <object placeholders="1" c4Name="Aplicación Spring Boot" c4Type="Component" c4Technology="e.g. Spring Service" c4Description="Contenedor que expone los API REST" label="&lt;font style=&quot;font-size: 16px&quot;&gt;&lt;b&gt;%c4Name%&lt;/b&gt;&lt;/font&gt;&lt;div&gt;[%c4Type%: %c4Technology%]&lt;/div&gt;&lt;br&gt;&lt;div&gt;&lt;font style=&quot;font-size: 11px&quot;&gt;%c4Description%&lt;/font&gt;&lt;/div&gt;" id="TcVEPrLO_hj4jdhJYqqL-1">
          <mxCell style="rounded=1;whiteSpace=wrap;html=1;labelBackgroundColor=none;fillColor=#63BEF2;fontColor=#ffffff;align=center;arcSize=6;strokeColor=#2086C9;metaEdit=1;resizable=0;points=[[0.25,0,0],[0.5,0,0],[0.75,0,0],[1,0.25,0],[1,0.5,0],[1,0.75,0],[0.75,1,0],[0.5,1,0],[0.25,1,0],[0,0.75,0],[0,0.5,0],[0,0.25,0]];" vertex="1" parent="1">
            <mxGeometry x="300" y="150" width="240" height="120" as="geometry" />
          </mxCell>
        </object>
        <object placeholders="1" c4Name="Cliente" c4Type="Person" c4Description="Interesado en comprar acciones" label="&lt;font style=&quot;font-size: 16px&quot;&gt;&lt;b&gt;%c4Name%&lt;/b&gt;&lt;/font&gt;&lt;div&gt;[%c4Type%]&lt;/div&gt;&lt;br&gt;&lt;div&gt;&lt;font style=&quot;font-size: 11px&quot;&gt;&lt;font color=&quot;#cccccc&quot;&gt;%c4Description%&lt;/font&gt;&lt;/div&gt;" id="wLdAwU2j9EdMwUyfaIgb-1">
          <mxCell style="html=1;fontSize=11;dashed=0;whiteSpace=wrap;fillColor=#083F75;strokeColor=#06315C;fontColor=#ffffff;shape=mxgraph.c4.person2;align=center;metaEdit=1;points=[[0.5,0,0],[1,0.5,0],[1,0.75,0],[0.75,1,0],[0.5,1,0],[0.25,1,0],[0,0.75,0],[0,0.5,0]];resizable=0;" vertex="1" parent="1">
            <mxGeometry x="330" y="-200" width="200" height="180" as="geometry" />
          </mxCell>
        </object>
        <object placeholders="1" c4Type="Relationship" c4Description="Lee información a" label="&lt;div style=&quot;text-align: left&quot;&gt;&lt;div style=&quot;text-align: center&quot;&gt;&lt;b&gt;%c4Description%&lt;/b&gt;&lt;/div&gt;" id="wLdAwU2j9EdMwUyfaIgb-3">
          <mxCell style="endArrow=blockThin;html=1;fontSize=10;fontColor=#404040;strokeWidth=1;endFill=1;strokeColor=#828282;elbow=vertical;metaEdit=1;endSize=14;startSize=14;jumpStyle=arc;jumpSize=16;rounded=0;edgeStyle=orthogonalEdgeStyle;exitX=0.465;exitY=1.017;exitDx=0;exitDy=0;exitPerimeter=0;entryX=0.533;entryY=0;entryDx=0;entryDy=0;entryPerimeter=0;" edge="1" parent="1" source="TcVEPrLO_hj4jdhJYqqL-1" target="v8b1XL35mKmCZnruBkDe-2">
            <mxGeometry width="240" relative="1" as="geometry">
              <mxPoint x="290" y="210" as="sourcePoint" />
              <mxPoint x="530" y="210" as="targetPoint" />
            </mxGeometry>
          </mxCell>
        </object>
        <object placeholders="1" c4Type="Base de Datos Clientes" c4Container="Container" c4Technology="" c4Description="Contiene la información de los clientes y las acciones que agregue" label="&lt;font style=&quot;font-size: 16px&quot;&gt;&lt;b&gt;%c4Type%&lt;/b&gt;&lt;/font&gt;&lt;div&gt;[%c4Container%:&amp;nbsp;%c4Technology%]&lt;/div&gt;&lt;br&gt;&lt;div&gt;&lt;font style=&quot;font-size: 11px&quot;&gt;&lt;font color=&quot;#E6E6E6&quot;&gt;%c4Description%&lt;/font&gt;&lt;/div&gt;" id="wLdAwU2j9EdMwUyfaIgb-4">
          <mxCell style="shape=cylinder3;size=15;whiteSpace=wrap;html=1;boundedLbl=1;rounded=0;labelBackgroundColor=none;fillColor=#23A2D9;fontSize=12;fontColor=#ffffff;align=center;strokeColor=#0E7DAD;metaEdit=1;points=[[0.5,0,0],[1,0.25,0],[1,0.5,0],[1,0.75,0],[0.5,1,0],[0,0.75,0],[0,0.5,0],[0,0.25,0]];resizable=0;" vertex="1" parent="1">
            <mxGeometry x="480" y="340" width="240" height="120" as="geometry" />
          </mxCell>
        </object>
        <object placeholders="1" c4Type="Relationship" c4Description="Lee y escribe información a" label="&lt;div style=&quot;text-align: left&quot;&gt;&lt;div style=&quot;text-align: center&quot;&gt;&lt;b&gt;%c4Description%&lt;/b&gt;&lt;/div&gt;" id="wLdAwU2j9EdMwUyfaIgb-5">
          <mxCell style="endArrow=blockThin;html=1;fontSize=10;fontColor=#404040;strokeWidth=1;endFill=1;strokeColor=#828282;elbow=vertical;metaEdit=1;endSize=14;startSize=14;jumpStyle=arc;jumpSize=16;rounded=0;edgeStyle=orthogonalEdgeStyle;exitX=0.605;exitY=1.05;exitDx=0;exitDy=0;exitPerimeter=0;" edge="1" parent="1" source="TcVEPrLO_hj4jdhJYqqL-1" target="wLdAwU2j9EdMwUyfaIgb-4">
            <mxGeometry width="240" relative="1" as="geometry">
              <mxPoint x="490" y="300" as="sourcePoint" />
              <mxPoint x="830" y="250" as="targetPoint" />
            </mxGeometry>
          </mxCell>
        </object>
        <object placeholders="1" c4Type="Relationship" c4Description="usa" label="&lt;div style=&quot;text-align: left&quot;&gt;&lt;div style=&quot;text-align: center&quot;&gt;&lt;b&gt;%c4Description%&lt;/b&gt;&lt;/div&gt;" id="wLdAwU2j9EdMwUyfaIgb-6">
          <mxCell style="endArrow=blockThin;html=1;fontSize=10;fontColor=#404040;strokeWidth=1;endFill=1;strokeColor=#828282;elbow=vertical;metaEdit=1;endSize=14;startSize=14;jumpStyle=arc;jumpSize=16;rounded=0;edgeStyle=orthogonalEdgeStyle;exitX=0.45;exitY=1;exitDx=0;exitDy=0;exitPerimeter=0;entryX=0.5;entryY=0;entryDx=0;entryDy=0;entryPerimeter=0;" edge="1" parent="1" source="wLdAwU2j9EdMwUyfaIgb-1" target="TcVEPrLO_hj4jdhJYqqL-1">
            <mxGeometry width="240" relative="1" as="geometry">
              <mxPoint x="410" y="40" as="sourcePoint" />
              <mxPoint x="650" y="40" as="targetPoint" />
            </mxGeometry>
          </mxCell>
        </object>
      </root>
    </mxGraphModel>
  </diagram>
  <diagram id="BQElZmLqdxfQcQaTbgco" name="3 Componentes">
    <mxGraphModel grid="1" page="1" gridSize="10" guides="1" tooltips="1" connect="1" arrows="1" fold="1" pageScale="1" pageWidth="827" pageHeight="1169" math="0" shadow="0">
      <root>
        <mxCell id="0" />
        <mxCell id="1" parent="0" />
        <object placeholders="1" c4Name="Aplicación Spring Boot" c4Type="" c4Application="Container" label="&lt;font style=&quot;font-size: 16px&quot;&gt;&lt;b&gt;&lt;div style=&quot;text-align: left&quot;&gt;%c4Name%&lt;/div&gt;&lt;/b&gt;&lt;/font&gt;&lt;div style=&quot;text-align: left&quot;&gt;[%c4Application%]&lt;/div&gt;" id="x0jKFS6_Ru1sp2L-e_mg-1">
          <mxCell style="rounded=1;fontSize=11;whiteSpace=wrap;html=1;dashed=1;arcSize=20;fillColor=none;strokeColor=#666666;fontColor=#333333;labelBackgroundColor=none;align=left;verticalAlign=bottom;labelBorderColor=none;spacingTop=0;spacing=10;dashPattern=8 4;metaEdit=1;rotatable=0;perimeter=rectanglePerimeter;noLabel=0;labelPadding=0;allowArrows=0;connectable=0;expand=0;recursiveResize=0;editable=1;pointerEvents=0;absoluteArcSize=1;points=[[0.25,0,0],[0.5,0,0],[0.75,0,0],[1,0.25,0],[1,0.5,0],[1,0.75,0],[0.75,1,0],[0.5,1,0],[0.25,1,0],[0,0.75,0],[0,0.5,0],[0,0.25,0]];" vertex="1" parent="1">
            <mxGeometry x="130" y="140" width="1110" height="500" as="geometry" />
          </mxCell>
        </object>
        <object placeholders="1" c4Name="Servicios del Cliente" c4Type="" c4Technology="e.g. Spring Service" c4Description="Servicios que ofrece el cliente" label="&lt;font style=&quot;font-size: 16px&quot;&gt;&lt;b&gt;%c4Name%&lt;/b&gt;&lt;/font&gt;&lt;div&gt;[%c4Type%: %c4Technology%]&lt;/div&gt;&lt;br&gt;&lt;div&gt;&lt;font style=&quot;font-size: 11px&quot;&gt;%c4Description%&lt;/font&gt;&lt;/div&gt;" id="3EjLBotVHE9aTcckkdcH-1">
          <mxCell style="rounded=1;whiteSpace=wrap;html=1;labelBackgroundColor=none;fillColor=#63BEF2;fontColor=#ffffff;align=center;arcSize=6;strokeColor=#2086C9;metaEdit=1;resizable=0;points=[[0.25,0,0],[0.5,0,0],[0.75,0,0],[1,0.25,0],[1,0.5,0],[1,0.75,0],[0.75,1,0],[0.5,1,0],[0.25,1,0],[0,0.75,0],[0,0.5,0],[0,0.25,0]];" vertex="1" parent="1">
            <mxGeometry x="950" y="370" width="240" height="120" as="geometry" />
          </mxCell>
        </object>
        <object placeholders="1" c4Name="Servicio Bolsa de Valores" c4Type="Component" c4Technology="e.g. Spring Service" c4Description="Servicios que ofrece la bolsa de valores" label="&lt;font style=&quot;font-size: 16px&quot;&gt;&lt;b&gt;%c4Name%&lt;/b&gt;&lt;/font&gt;&lt;div&gt;[%c4Type%: %c4Technology%]&lt;/div&gt;&lt;br&gt;&lt;div&gt;&lt;font style=&quot;font-size: 11px&quot;&gt;%c4Description%&lt;/font&gt;&lt;/div&gt;" id="3EjLBotVHE9aTcckkdcH-2">
          <mxCell style="rounded=1;whiteSpace=wrap;html=1;labelBackgroundColor=none;fillColor=#63BEF2;fontColor=#ffffff;align=center;arcSize=6;strokeColor=#2086C9;metaEdit=1;resizable=0;points=[[0.25,0,0],[0.5,0,0],[0.75,0,0],[1,0.25,0],[1,0.5,0],[1,0.75,0],[0.75,1,0],[0.5,1,0],[0.25,1,0],[0,0.75,0],[0,0.5,0],[0,0.25,0]];" vertex="1" parent="1">
            <mxGeometry x="300" y="380" width="240" height="120" as="geometry" />
          </mxCell>
        </object>
        <object placeholders="1" c4Name="Controlador Rest Cliente" c4Type="Component" c4Technology="Spring Boot" c4Description="Controlador Rest que accede a los servicios del cliente" label="&lt;font style=&quot;font-size: 16px&quot;&gt;&lt;b&gt;%c4Name%&lt;/b&gt;&lt;/font&gt;&lt;div&gt;[%c4Type%: %c4Technology%]&lt;/div&gt;&lt;br&gt;&lt;div&gt;&lt;font style=&quot;font-size: 11px&quot;&gt;%c4Description%&lt;/font&gt;&lt;/div&gt;" id="3EjLBotVHE9aTcckkdcH-3">
          <mxCell style="rounded=1;whiteSpace=wrap;html=1;labelBackgroundColor=none;fillColor=#63BEF2;fontColor=#ffffff;align=center;arcSize=6;strokeColor=#2086C9;metaEdit=1;resizable=0;points=[[0.25,0,0],[0.5,0,0],[0.75,0,0],[1,0.25,0],[1,0.5,0],[1,0.75,0],[0.75,1,0],[0.5,1,0],[0.25,1,0],[0,0.75,0],[0,0.5,0],[0,0.25,0]];" vertex="1" parent="1">
            <mxGeometry x="950" y="170" width="240" height="120" as="geometry" />
          </mxCell>
        </object>
        <object placeholders="1" c4Name="Controlador Rest Bolsa de Valores" c4Type="Component" c4Technology="Spring Boot" c4Description="Controlador Rest que accede a los servicios de la bolsa de valores" label="&lt;font style=&quot;font-size: 16px&quot;&gt;&lt;b&gt;%c4Name%&lt;/b&gt;&lt;/font&gt;&lt;div&gt;[%c4Type%: %c4Technology%]&lt;/div&gt;&lt;br&gt;&lt;div&gt;&lt;font style=&quot;font-size: 11px&quot;&gt;%c4Description%&lt;/font&gt;&lt;/div&gt;" id="3EjLBotVHE9aTcckkdcH-4">
          <mxCell style="rounded=1;whiteSpace=wrap;html=1;labelBackgroundColor=none;fillColor=#63BEF2;fontColor=#ffffff;align=center;arcSize=6;strokeColor=#2086C9;metaEdit=1;resizable=0;points=[[0.25,0,0],[0.5,0,0],[0.75,0,0],[1,0.25,0],[1,0.5,0],[1,0.75,0],[0.75,1,0],[0.5,1,0],[0.25,1,0],[0,0.75,0],[0,0.5,0],[0,0.25,0]];" vertex="1" parent="1">
            <mxGeometry x="330" y="180" width="240" height="120" as="geometry" />
          </mxCell>
        </object>
        <object placeholders="1" c4Type="Relationship" c4Description="Usa" label="&lt;div style=&quot;text-align: left&quot;&gt;&lt;div style=&quot;text-align: center&quot;&gt;&lt;b&gt;%c4Description%&lt;/b&gt;&lt;/div&gt;" id="3EjLBotVHE9aTcckkdcH-5">
          <mxCell style="endArrow=blockThin;html=1;fontSize=10;fontColor=#404040;strokeWidth=1;endFill=1;strokeColor=#828282;elbow=vertical;metaEdit=1;endSize=14;startSize=14;jumpStyle=arc;jumpSize=16;rounded=0;edgeStyle=orthogonalEdgeStyle;exitX=0.5;exitY=1;exitDx=0;exitDy=0;exitPerimeter=0;" edge="1" parent="1" source="3EjLBotVHE9aTcckkdcH-4" target="3EjLBotVHE9aTcckkdcH-2">
            <mxGeometry width="240" relative="1" as="geometry">
              <mxPoint x="430" y="330" as="sourcePoint" />
              <mxPoint x="660" y="330" as="targetPoint" />
              <mxPoint as="offset" />
              <Array as="points">
                <mxPoint x="420" y="300" />
              </Array>
            </mxGeometry>
          </mxCell>
        </object>
        <object placeholders="1" c4Type="Relationship" c4Description="Lee información a" label="&lt;div style=&quot;text-align: left&quot;&gt;&lt;div style=&quot;text-align: center&quot;&gt;&lt;b&gt;%c4Description%&lt;/b&gt;&lt;/div&gt;" id="mwKaMCICTPi5nmitnM5m-1">
          <mxCell style="endArrow=blockThin;html=1;fontSize=10;fontColor=#404040;strokeWidth=1;endFill=1;strokeColor=#828282;elbow=vertical;metaEdit=1;endSize=14;startSize=14;jumpStyle=arc;jumpSize=16;rounded=0;edgeStyle=orthogonalEdgeStyle;exitX=0.54;exitY=1.002;exitDx=0;exitDy=0;exitPerimeter=0;entryX=0.5;entryY=0;entryDx=0;entryDy=0;entryPerimeter=0;" edge="1" parent="1" source="3EjLBotVHE9aTcckkdcH-2" target="e29ajCkvPB5vf13rHvma-1">
            <mxGeometry width="240" relative="1" as="geometry">
              <mxPoint x="684" y="580" as="sourcePoint" />
              <mxPoint x="430" y="670" as="targetPoint" />
              <Array as="points" />
            </mxGeometry>
          </mxCell>
        </object>
        <object placeholders="1" c4Type="Relationship" c4Description="Lee y escribe información a" label="&lt;div style=&quot;text-align: left&quot;&gt;&lt;div style=&quot;text-align: center&quot;&gt;&lt;b&gt;%c4Description%&lt;/b&gt;&lt;/div&gt;" id="mwKaMCICTPi5nmitnM5m-2">
          <mxCell style="endArrow=blockThin;html=1;fontSize=10;fontColor=#404040;strokeWidth=1;endFill=1;strokeColor=#828282;elbow=vertical;metaEdit=1;endSize=14;startSize=14;jumpStyle=arc;jumpSize=16;rounded=0;edgeStyle=orthogonalEdgeStyle;exitX=0.5;exitY=1;exitDx=0;exitDy=0;exitPerimeter=0;entryX=0.5;entryY=0;entryDx=0;entryDy=0;entryPerimeter=0;" edge="1" parent="1" source="3EjLBotVHE9aTcckkdcH-1" target="EfYkbYrYX-mnfUcSi1ej-1">
            <mxGeometry width="240" relative="1" as="geometry">
              <mxPoint x="839.5" y="520" as="sourcePoint" />
              <mxPoint x="1070" y="660" as="targetPoint" />
            </mxGeometry>
          </mxCell>
        </object>
        <object placeholders="1" c4Type="Relationship" c4Description="usa" label="&lt;div style=&quot;text-align: left&quot;&gt;&lt;div style=&quot;text-align: center&quot;&gt;&lt;b&gt;%c4Description%&lt;/b&gt;&lt;/div&gt;" id="7Yj9FXMzL12-8LMZzKxy-1">
          <mxCell style="endArrow=blockThin;html=1;fontSize=10;fontColor=#404040;strokeWidth=1;endFill=1;strokeColor=#828282;elbow=vertical;metaEdit=1;endSize=14;startSize=14;jumpStyle=arc;jumpSize=16;rounded=0;edgeStyle=orthogonalEdgeStyle;exitX=0.547;exitY=1.032;exitDx=0;exitDy=0;exitPerimeter=0;entryX=0.55;entryY=0.012;entryDx=0;entryDy=0;entryPerimeter=0;" edge="1" parent="1" source="3EjLBotVHE9aTcckkdcH-3" target="3EjLBotVHE9aTcckkdcH-1">
            <mxGeometry width="240" relative="1" as="geometry">
              <mxPoint x="540" y="400" as="sourcePoint" />
              <mxPoint x="780" y="400" as="targetPoint" />
            </mxGeometry>
          </mxCell>
        </object>
        <object placeholders="1" c4Name="Controlador Rest Portafolio" c4Type="Component" c4Technology="Spring Boot" c4Description="Controlador Rest que accede a los servicios del portafolio" label="&lt;font style=&quot;font-size: 16px&quot;&gt;&lt;b&gt;%c4Name%&lt;/b&gt;&lt;/font&gt;&lt;div&gt;[%c4Type%: %c4Technology%]&lt;/div&gt;&lt;br&gt;&lt;div&gt;&lt;font style=&quot;font-size: 11px&quot;&gt;%c4Description%&lt;/font&gt;&lt;/div&gt;" id="7Yj9FXMzL12-8LMZzKxy-2">
          <mxCell style="rounded=1;whiteSpace=wrap;html=1;labelBackgroundColor=none;fillColor=#63BEF2;fontColor=#ffffff;align=center;arcSize=6;strokeColor=#2086C9;metaEdit=1;resizable=0;points=[[0.25,0,0],[0.5,0,0],[0.75,0,0],[1,0.25,0],[1,0.5,0],[1,0.75,0],[0.75,1,0],[0.5,1,0],[0.25,1,0],[0,0.75,0],[0,0.5,0],[0,0.25,0]];" vertex="1" parent="1">
            <mxGeometry x="640" y="180" width="240" height="120" as="geometry" />
          </mxCell>
        </object>
        <object placeholders="1" c4Name="Servicios del Portafolio" c4Type="" c4Technology="e.g. Spring Service" c4Description="Servicios que ofrece el portafolio del cliente." label="&lt;font style=&quot;font-size: 16px&quot;&gt;&lt;b&gt;%c4Name%&lt;/b&gt;&lt;/font&gt;&lt;div&gt;[%c4Type%: %c4Technology%]&lt;/div&gt;&lt;br&gt;&lt;div&gt;&lt;font style=&quot;font-size: 11px&quot;&gt;%c4Description%&lt;/font&gt;&lt;/div&gt;" id="7Yj9FXMzL12-8LMZzKxy-3">
          <mxCell style="rounded=1;whiteSpace=wrap;html=1;labelBackgroundColor=none;fillColor=#63BEF2;fontColor=#ffffff;align=center;arcSize=6;strokeColor=#2086C9;metaEdit=1;resizable=0;points=[[0.25,0,0],[0.5,0,0],[0.75,0,0],[1,0.25,0],[1,0.5,0],[1,0.75,0],[0.75,1,0],[0.5,1,0],[0.25,1,0],[0,0.75,0],[0,0.5,0],[0,0.25,0]];" vertex="1" parent="1">
            <mxGeometry x="640" y="370" width="240" height="120" as="geometry" />
          </mxCell>
        </object>
        <object placeholders="1" c4Type="Relationship" c4Description="Usa" label="&lt;div style=&quot;text-align: left&quot;&gt;&lt;div style=&quot;text-align: center&quot;&gt;&lt;b&gt;%c4Description%&lt;/b&gt;&lt;/div&gt;" id="7Yj9FXMzL12-8LMZzKxy-7">
          <mxCell style="endArrow=blockThin;html=1;fontSize=10;fontColor=#404040;strokeWidth=1;endFill=1;strokeColor=#828282;elbow=vertical;metaEdit=1;endSize=14;startSize=14;jumpStyle=arc;jumpSize=16;rounded=0;edgeStyle=orthogonalEdgeStyle;exitX=0.5;exitY=1;exitDx=0;exitDy=0;exitPerimeter=0;" edge="1" parent="1" source="7Yj9FXMzL12-8LMZzKxy-2" target="7Yj9FXMzL12-8LMZzKxy-3">
            <mxGeometry width="240" relative="1" as="geometry">
              <mxPoint x="790" y="350" as="sourcePoint" />
              <mxPoint x="760" y="430" as="targetPoint" />
              <mxPoint as="offset" />
              <Array as="points" />
            </mxGeometry>
          </mxCell>
        </object>
        <object placeholders="1" c4Type="Aplicación que usa la Api" c4Container="Container" c4Technology="e.g. JavaScript, Angular etc." c4Description="Usuario/Cliente que usará la Api Rest" label="&lt;font style=&quot;font-size: 16px&quot;&gt;&lt;b&gt;%c4Type%&lt;/b&gt;&lt;/font&gt;&lt;div&gt;[%c4Container%:&amp;nbsp;%c4Technology%]&lt;/div&gt;&lt;br&gt;&lt;div&gt;&lt;font style=&quot;font-size: 11px&quot;&gt;&lt;font color=&quot;#E6E6E6&quot;&gt;%c4Description%&lt;/font&gt;&lt;/div&gt;" id="q_aJi4uGeWRNjpZGPGj1-2">
          <mxCell style="shape=mxgraph.c4.webBrowserContainer2;whiteSpace=wrap;html=1;boundedLbl=1;rounded=0;labelBackgroundColor=none;strokeColor=#118ACD;fillColor=#23A2D9;strokeColor=#118ACD;strokeColor2=#0E7DAD;fontSize=12;fontColor=#ffffff;align=center;metaEdit=1;points=[[0.5,0,0],[1,0.25,0],[1,0.5,0],[1,0.75,0],[0.5,1,0],[0,0.75,0],[0,0.5,0],[0,0.25,0]];resizable=0;" vertex="1" parent="1">
            <mxGeometry x="620" y="-90" width="240" height="160" as="geometry" />
          </mxCell>
        </object>
        <object placeholders="1" c4Type="Relationship" c4Description="Llama a la Api" label="&lt;div style=&quot;text-align: left&quot;&gt;&lt;div style=&quot;text-align: center&quot;&gt;&lt;b&gt;%c4Description%&lt;/b&gt;&lt;/div&gt;" id="q_aJi4uGeWRNjpZGPGj1-3">
          <mxCell style="endArrow=blockThin;html=1;fontSize=10;fontColor=#404040;strokeWidth=1;endFill=1;strokeColor=#828282;elbow=vertical;metaEdit=1;endSize=14;startSize=14;jumpStyle=arc;jumpSize=16;rounded=0;edgeStyle=orthogonalEdgeStyle;exitX=0.332;exitY=1.003;exitDx=0;exitDy=0;exitPerimeter=0;entryX=0.5;entryY=0;entryDx=0;entryDy=0;entryPerimeter=0;" edge="1" parent="1" source="q_aJi4uGeWRNjpZGPGj1-2" target="3EjLBotVHE9aTcckkdcH-4">
            <mxGeometry width="240" relative="1" as="geometry">
              <mxPoint x="380" y="120" as="sourcePoint" />
              <mxPoint x="620" y="120" as="targetPoint" />
            </mxGeometry>
          </mxCell>
        </object>
        <object placeholders="1" c4Type="Relationship" c4Description="Llama a la Api" label="&lt;div style=&quot;text-align: left&quot;&gt;&lt;div style=&quot;text-align: center&quot;&gt;&lt;b&gt;%c4Description%&lt;/b&gt;&lt;/div&gt;" id="q_aJi4uGeWRNjpZGPGj1-4">
          <mxCell style="endArrow=blockThin;html=1;fontSize=10;fontColor=#404040;strokeWidth=1;endFill=1;strokeColor=#828282;elbow=vertical;metaEdit=1;endSize=14;startSize=14;jumpStyle=arc;jumpSize=16;rounded=0;edgeStyle=orthogonalEdgeStyle;exitX=0.5;exitY=1;exitDx=0;exitDy=0;exitPerimeter=0;entryX=0.5;entryY=0;entryDx=0;entryDy=0;entryPerimeter=0;" edge="1" parent="1" source="q_aJi4uGeWRNjpZGPGj1-2" target="7Yj9FXMzL12-8LMZzKxy-2">
            <mxGeometry width="240" relative="1" as="geometry">
              <mxPoint x="790" y="120" as="sourcePoint" />
              <mxPoint x="540" y="230" as="targetPoint" />
            </mxGeometry>
          </mxCell>
        </object>
        <object placeholders="1" c4Type="Relationship" c4Description="Llama a la Api" label="&lt;div style=&quot;text-align: left&quot;&gt;&lt;div style=&quot;text-align: center&quot;&gt;&lt;b&gt;%c4Description%&lt;/b&gt;&lt;/div&gt;" id="q_aJi4uGeWRNjpZGPGj1-5">
          <mxCell style="endArrow=blockThin;html=1;fontSize=10;fontColor=#404040;strokeWidth=1;endFill=1;strokeColor=#828282;elbow=vertical;metaEdit=1;endSize=14;startSize=14;jumpStyle=arc;jumpSize=16;rounded=0;edgeStyle=orthogonalEdgeStyle;exitX=0.692;exitY=1.023;exitDx=0;exitDy=0;exitPerimeter=0;" edge="1" parent="1" source="q_aJi4uGeWRNjpZGPGj1-2" target="3EjLBotVHE9aTcckkdcH-3">
            <mxGeometry width="240" relative="1" as="geometry">
              <mxPoint x="1310" y="40" as="sourcePoint" />
              <mxPoint x="1060" y="150" as="targetPoint" />
              <Array as="points">
                <mxPoint x="786" y="110" />
                <mxPoint x="1070" y="110" />
              </Array>
            </mxGeometry>
          </mxCell>
        </object>
        <object placeholders="1" c4Type="Base de Datos Bolsa de Valores" c4Container="Database" c4Technology="" c4Description="Contiene la información de la bolsa de valores y sus acciones." label="&lt;font style=&quot;font-size: 16px&quot;&gt;&lt;b&gt;%c4Type%&lt;/b&gt;&lt;/font&gt;&lt;div&gt;[%c4Container%:&amp;nbsp;%c4Technology%]&lt;/div&gt;&lt;br&gt;&lt;div&gt;&lt;font style=&quot;font-size: 11px&quot;&gt;&lt;font color=&quot;#E6E6E6&quot;&gt;%c4Description%&lt;/font&gt;&lt;/div&gt;" id="e29ajCkvPB5vf13rHvma-1">
          <mxCell style="shape=cylinder3;size=15;whiteSpace=wrap;html=1;boundedLbl=1;rounded=0;labelBackgroundColor=none;fillColor=#23A2D9;fontSize=12;fontColor=#ffffff;align=center;strokeColor=#0E7DAD;metaEdit=1;points=[[0.5,0,0],[1,0.25,0],[1,0.5,0],[1,0.75,0],[0.5,1,0],[0,0.75,0],[0,0.5,0],[0,0.25,0]];resizable=0;" vertex="1" parent="1">
            <mxGeometry x="310" y="680" width="240" height="120" as="geometry" />
          </mxCell>
        </object>
        <object placeholders="1" c4Type="Base de Datos Clientes" c4Container="Container" c4Technology="" c4Description="Contiene la información de los clientes y las acciones que agregue" label="&lt;font style=&quot;font-size: 16px&quot;&gt;&lt;b&gt;%c4Type%&lt;/b&gt;&lt;/font&gt;&lt;div&gt;[%c4Container%:&amp;nbsp;%c4Technology%]&lt;/div&gt;&lt;br&gt;&lt;div&gt;&lt;font style=&quot;font-size: 11px&quot;&gt;&lt;font color=&quot;#E6E6E6&quot;&gt;%c4Description%&lt;/font&gt;&lt;/div&gt;" id="EfYkbYrYX-mnfUcSi1ej-1">
          <mxCell style="shape=cylinder3;size=15;whiteSpace=wrap;html=1;boundedLbl=1;rounded=0;labelBackgroundColor=none;fillColor=#23A2D9;fontSize=12;fontColor=#ffffff;align=center;strokeColor=#0E7DAD;metaEdit=1;points=[[0.5,0,0],[1,0.25,0],[1,0.5,0],[1,0.75,0],[0.5,1,0],[0,0.75,0],[0,0.5,0],[0,0.25,0]];resizable=0;" vertex="1" parent="1">
            <mxGeometry x="950" y="670" width="240" height="120" as="geometry" />
          </mxCell>
        </object>
        <object placeholders="1" c4Type="Relationship" c4Description="Lee y escribe información a" label="&lt;div style=&quot;text-align: left&quot;&gt;&lt;div style=&quot;text-align: center&quot;&gt;&lt;b&gt;%c4Description%&lt;/b&gt;&lt;/div&gt;" id="uW-FXx6jd-4749_qBRXZ-1">
          <mxCell style="endArrow=blockThin;html=1;fontSize=10;fontColor=#404040;strokeWidth=1;endFill=1;strokeColor=#828282;elbow=vertical;metaEdit=1;endSize=14;startSize=14;jumpStyle=arc;jumpSize=16;rounded=0;edgeStyle=orthogonalEdgeStyle;exitX=0.5;exitY=1;exitDx=0;exitDy=0;exitPerimeter=0;entryX=0.137;entryY=0.057;entryDx=0;entryDy=0;entryPerimeter=0;" edge="1" parent="1" source="7Yj9FXMzL12-8LMZzKxy-3" target="EfYkbYrYX-mnfUcSi1ej-1">
            <mxGeometry width="240" relative="1" as="geometry">
              <mxPoint x="840" y="520" as="sourcePoint" />
              <mxPoint x="840" y="700" as="targetPoint" />
            </mxGeometry>
          </mxCell>
        </object>
        <object placeholders="1" c4Type="Relationship" c4Description="Lee información a" label="&lt;div style=&quot;text-align: left&quot;&gt;&lt;div style=&quot;text-align: center&quot;&gt;&lt;b&gt;%c4Description%&lt;/b&gt;&lt;/div&gt;" id="62G4dauTZ5YjqiNrNDfN-1">
          <mxCell style="endArrow=blockThin;html=1;fontSize=10;fontColor=#404040;strokeWidth=1;endFill=1;strokeColor=#828282;elbow=vertical;metaEdit=1;endSize=14;startSize=14;jumpStyle=arc;jumpSize=16;rounded=0;edgeStyle=orthogonalEdgeStyle;exitX=0.5;exitY=1;exitDx=0;exitDy=0;exitPerimeter=0;entryX=0.737;entryY=0.007;entryDx=0;entryDy=0;entryPerimeter=0;" edge="1" parent="1" source="7Yj9FXMzL12-8LMZzKxy-3" target="e29ajCkvPB5vf13rHvma-1">
            <mxGeometry width="240" relative="1" as="geometry">
              <mxPoint x="440" y="510" as="sourcePoint" />
              <mxPoint x="440" y="690" as="targetPoint" />
              <Array as="points">
                <mxPoint x="750" y="490" />
                <mxPoint x="750" y="580" />
                <mxPoint x="487" y="580" />
              </Array>
            </mxGeometry>
          </mxCell>
        </object>
      </root>
    </mxGraphModel>
  </diagram>
  <diagram id="0UP9xM_6Pr8uY3tZlbDM" name="4 Codigo">
    <mxGraphModel grid="1" page="1" gridSize="10" guides="1" tooltips="1" connect="1" arrows="1" fold="1" pageScale="1" pageWidth="827" pageHeight="1169" math="0" shadow="0">
      <root>
        <mxCell id="0" />
        <mxCell id="1" parent="0" />
        <mxCell id="Q1jC649QyWr9QvPAvlHH-1" value="&lt;p style=&quot;margin:0px;margin-top:4px;text-align:center;&quot;&gt;&lt;b&gt;Action&lt;/b&gt;&lt;/p&gt;&lt;hr size=&quot;1&quot;/&gt;" style="verticalAlign=top;align=left;overflow=fill;fontSize=14;fontFamily=Helvetica;html=1;rounded=0;shadow=0;comic=0;labelBackgroundColor=none;strokeWidth=1;fillColor=#FF6666;" vertex="1" parent="1">
          <mxGeometry x="335" y="-14" width="99" height="30" as="geometry" />
        </mxCell>
        <mxCell id="Q1jC649QyWr9QvPAvlHH-2" value="&lt;p style=&quot;margin:0px;margin-top:4px;text-align:center;&quot;&gt;&lt;b&gt;Client&lt;/b&gt;&lt;/p&gt;&lt;hr size=&quot;1&quot;/&gt;" style="verticalAlign=top;align=left;overflow=fill;fontSize=14;fontFamily=Helvetica;html=1;rounded=0;shadow=0;comic=0;labelBackgroundColor=none;strokeWidth=1;fillColor=#FF6666;" vertex="1" parent="1">
          <mxGeometry x="794" y="64" width="95" height="30" as="geometry" />
        </mxCell>
        <mxCell id="Q1jC649QyWr9QvPAvlHH-3" value="&lt;p style=&quot;margin:0px;margin-top:4px;text-align:center;&quot;&gt;&lt;b&gt;ClientController&lt;/b&gt;&lt;/p&gt;&lt;hr size=&quot;1&quot;/&gt;" style="verticalAlign=top;align=left;overflow=fill;fontSize=14;fontFamily=Helvetica;html=1;rounded=0;shadow=0;comic=0;labelBackgroundColor=none;strokeWidth=1;fillColor=#FFFF1C;" vertex="1" parent="1">
          <mxGeometry x="565" y="230" width="172" height="30" as="geometry" />
        </mxCell>
        <mxCell id="Q1jC649QyWr9QvPAvlHH-4" value="&lt;p style=&quot;margin:0px;margin-top:4px;text-align:center;&quot;&gt;&lt;b&gt;ClientRepository&lt;/b&gt;&lt;/p&gt;&lt;hr size=&quot;1&quot;/&gt;" style="verticalAlign=top;align=left;overflow=fill;fontSize=14;fontFamily=Helvetica;html=1;rounded=0;shadow=0;comic=0;labelBackgroundColor=none;strokeWidth=1;fillColor=#99CCFF;" vertex="1" parent="1">
          <mxGeometry x="747" y="152" width="178" height="30" as="geometry" />
        </mxCell>
        <mxCell id="Q1jC649QyWr9QvPAvlHH-5" value="&lt;p style=&quot;margin:0px;margin-top:4px;text-align:center;&quot;&gt;&lt;b&gt;ClientService&lt;/b&gt;&lt;/p&gt;&lt;hr size=&quot;1&quot;/&gt;" style="verticalAlign=top;align=left;overflow=fill;fontSize=14;fontFamily=Helvetica;html=1;rounded=0;shadow=0;comic=0;labelBackgroundColor=none;strokeWidth=1;fillColor=#8BFF17;" vertex="1" parent="1">
          <mxGeometry x="574" y="152" width="153" height="30" as="geometry" />
        </mxCell>
        <mxCell id="Q1jC649QyWr9QvPAvlHH-6" value="&lt;p style=&quot;margin:0px;margin-top:4px;text-align:center;&quot;&gt;&lt;i&gt;&amp;lt;&amp;lt;interface&amp;gt;&amp;gt;&lt;/i&gt;&lt;br/&gt;&lt;b&gt;IClientRepository&lt;/b&gt;&lt;/p&gt;&lt;hr size=&quot;1&quot;/&gt;" style="verticalAlign=top;align=left;overflow=fill;fontSize=14;fontFamily=Helvetica;html=1;rounded=0;shadow=0;comic=0;labelBackgroundColor=none;strokeWidth=1;fillColor=#E5CCFF;" vertex="1" parent="1">
          <mxGeometry x="517" y="64" width="182" height="35" as="geometry" />
        </mxCell>
        <mxCell id="Q1jC649QyWr9QvPAvlHH-7" value="&lt;p style=&quot;margin:0px;margin-top:4px;text-align:center;&quot;&gt;&lt;i&gt;&amp;lt;&amp;lt;interface&amp;gt;&amp;gt;&lt;/i&gt;&lt;br/&gt;&lt;b&gt;IStockExchangeRepository&lt;/b&gt;&lt;/p&gt;&lt;hr size=&quot;1&quot;/&gt;" style="verticalAlign=top;align=left;overflow=fill;fontSize=14;fontFamily=Helvetica;html=1;rounded=0;shadow=0;comic=0;labelBackgroundColor=none;strokeWidth=1;fillColor=#E5CCFF;" vertex="1" parent="1">
          <mxGeometry x="125" y="64" width="255" height="35" as="geometry" />
        </mxCell>
        <mxCell id="Q1jC649QyWr9QvPAvlHH-8" value="&lt;p style=&quot;margin:0px;margin-top:4px;text-align:center;&quot;&gt;&lt;b&gt;PortfolioController&lt;/b&gt;&lt;/p&gt;&lt;hr size=&quot;1&quot;/&gt;" style="verticalAlign=top;align=left;overflow=fill;fontSize=14;fontFamily=Helvetica;html=1;rounded=0;shadow=0;comic=0;labelBackgroundColor=none;strokeWidth=1;fillColor=#FFFF1C;" vertex="1" parent="1">
          <mxGeometry x="353" y="230" width="192" height="30" as="geometry" />
        </mxCell>
        <mxCell id="Q1jC649QyWr9QvPAvlHH-9" value="&lt;p style=&quot;margin:0px;margin-top:4px;text-align:center;&quot;&gt;&lt;b&gt;PortfolioService&lt;/b&gt;&lt;/p&gt;&lt;hr size=&quot;1&quot;/&gt;" style="verticalAlign=top;align=left;overflow=fill;fontSize=14;fontFamily=Helvetica;html=1;rounded=0;shadow=0;comic=0;labelBackgroundColor=none;strokeWidth=1;fillColor=#8BFF17;" vertex="1" parent="1">
          <mxGeometry x="362" y="152" width="173" height="30" as="geometry" />
        </mxCell>
        <mxCell id="Q1jC649QyWr9QvPAvlHH-10" value="&lt;p style=&quot;margin:0px;margin-top:4px;text-align:center;&quot;&gt;&lt;b&gt;StockExchange&lt;/b&gt;&lt;/p&gt;&lt;hr size=&quot;1&quot;/&gt;" style="verticalAlign=top;align=left;overflow=fill;fontSize=14;fontFamily=Helvetica;html=1;rounded=0;shadow=0;comic=0;labelBackgroundColor=none;strokeWidth=1;fillColor=#FF6666;" vertex="1" parent="1">
          <mxGeometry x="-137" y="64" width="168" height="30" as="geometry" />
        </mxCell>
        <mxCell id="Q1jC649QyWr9QvPAvlHH-11" value="&lt;p style=&quot;margin:0px;margin-top:4px;text-align:center;&quot;&gt;&lt;b&gt;StockExchangeController&lt;/b&gt;&lt;/p&gt;&lt;hr size=&quot;1&quot;/&gt;" style="verticalAlign=top;align=left;overflow=fill;fontSize=14;fontFamily=Helvetica;html=1;rounded=0;shadow=0;comic=0;labelBackgroundColor=none;strokeWidth=1;fillColor=#FFFF1C;" vertex="1" parent="1">
          <mxGeometry x="88" y="230" width="245" height="30" as="geometry" />
        </mxCell>
        <mxCell id="Q1jC649QyWr9QvPAvlHH-12" value="&lt;p style=&quot;margin:0px;margin-top:4px;text-align:center;&quot;&gt;&lt;b&gt;StockExchangeRepository&lt;/b&gt;&lt;/p&gt;&lt;hr size=&quot;1&quot;/&gt;" style="verticalAlign=top;align=left;overflow=fill;fontSize=14;fontFamily=Helvetica;html=1;rounded=0;shadow=0;comic=0;labelBackgroundColor=none;strokeWidth=1;fillColor=#99CCFF;" vertex="1" parent="1">
          <mxGeometry x="-174" y="152" width="251" height="30" as="geometry" />
        </mxCell>
        <mxCell id="Q1jC649QyWr9QvPAvlHH-13" value="&lt;p style=&quot;margin:0px;margin-top:4px;text-align:center;&quot;&gt;&lt;b&gt;StockExchangeService&lt;/b&gt;&lt;/p&gt;&lt;hr size=&quot;1&quot;/&gt;" style="verticalAlign=top;align=left;overflow=fill;fontSize=14;fontFamily=Helvetica;html=1;rounded=0;shadow=0;comic=0;labelBackgroundColor=none;strokeWidth=1;fillColor=#8BFF17;" vertex="1" parent="1">
          <mxGeometry x="97" y="152" width="226" height="30" as="geometry" />
        </mxCell>
        <mxCell id="Q1jC649QyWr9QvPAvlHH-14" value="" style="html=1;rounded=1;edgeStyle=orthogonalEdgeStyle;dashed=0;startArrow=diamondThinstartSize=12;endArrow=openThin;endSize=12;strokeColor=#595959;exitX=0.500;exitY=0.002;exitDx=0;exitDy=0;entryX=0.500;entryY=1.002;entryDx=0;entryDy=0;" edge="1" parent="1" source="Q1jC649QyWr9QvPAvlHH-2" target="Q1jC649QyWr9QvPAvlHH-1">
          <mxGeometry width="50" height="50" relative="1" as="geometry">
            <Array as="points">
              <mxPoint x="841" y="39" />
              <mxPoint x="385" y="39" />
            </Array>
          </mxGeometry>
        </mxCell>
        <mxCell id="Q1jC649QyWr9QvPAvlHH-15" value="1" style="edgeLabel;resizable=0;html=1;align=left;verticalAlign=top;strokeColor=default;" connectable="0" vertex="1" parent="Q1jC649QyWr9QvPAvlHH-14">
          <mxGeometry x="830" y="39" as="geometry" />
        </mxCell>
        <mxCell id="Q1jC649QyWr9QvPAvlHH-16" value="*" style="edgeLabel;resizable=0;html=1;align=left;verticalAlign=top;strokeColor=default;" connectable="0" vertex="1" parent="Q1jC649QyWr9QvPAvlHH-14">
          <mxGeometry x="426" y="19" as="geometry" />
        </mxCell>
        <mxCell id="Q1jC649QyWr9QvPAvlHH-17" value="actions" style="edgeLabel;resizable=0;html=1;align=left;verticalAlign=top;strokeColor=default;" connectable="0" vertex="1" parent="Q1jC649QyWr9QvPAvlHH-14">
          <mxGeometry x="454" y="39" as="geometry" />
        </mxCell>
        <mxCell id="Q1jC649QyWr9QvPAvlHH-18" value="" style="html=1;rounded=1;edgeStyle=orthogonalEdgeStyle;dashed=0;startArrow=diamondThinstartSize=12;endArrow=openThin;endSize=12;strokeColor=#595959;exitX=0.500;exitY=0.002;exitDx=0;exitDy=0;entryX=0.500;entryY=1.002;entryDx=0;entryDy=0;" edge="1" parent="1" source="Q1jC649QyWr9QvPAvlHH-3" target="Q1jC649QyWr9QvPAvlHH-5">
          <mxGeometry width="50" height="50" relative="1" as="geometry">
            <Array as="points" />
          </mxGeometry>
        </mxCell>
        <mxCell id="Q1jC649QyWr9QvPAvlHH-19" value="1" style="edgeLabel;resizable=0;html=1;align=left;verticalAlign=top;strokeColor=default;" connectable="0" vertex="1" parent="Q1jC649QyWr9QvPAvlHH-18">
          <mxGeometry x="640" y="205" as="geometry" />
        </mxCell>
        <mxCell id="Q1jC649QyWr9QvPAvlHH-20" value="1" style="edgeLabel;resizable=0;html=1;align=left;verticalAlign=top;strokeColor=default;" connectable="0" vertex="1" parent="Q1jC649QyWr9QvPAvlHH-18">
          <mxGeometry x="640" y="185" as="geometry" />
        </mxCell>
        <mxCell id="Q1jC649QyWr9QvPAvlHH-21" value="clientService" style="edgeLabel;resizable=0;html=1;align=left;verticalAlign=top;strokeColor=default;" connectable="0" vertex="1" parent="Q1jC649QyWr9QvPAvlHH-18">
          <mxGeometry x="651" y="185" as="geometry" />
        </mxCell>
        <mxCell id="Q1jC649QyWr9QvPAvlHH-22" value="" style="html=1;rounded=1;edgeStyle=orthogonalEdgeStyle;dashed=0;startArrow=diamondThinstartSize=12;endArrow=openThin;endSize=12;strokeColor=#595959;exitX=0.750;exitY=0.001;exitDx=0;exitDy=0;entryX=0.500;entryY=1.001;entryDx=0;entryDy=0;" edge="1" parent="1" source="Q1jC649QyWr9QvPAvlHH-4" target="Q1jC649QyWr9QvPAvlHH-2">
          <mxGeometry width="50" height="50" relative="1" as="geometry">
            <Array as="points">
              <mxPoint x="881" y="132" />
              <mxPoint x="841" y="132" />
            </Array>
          </mxGeometry>
        </mxCell>
        <mxCell id="Q1jC649QyWr9QvPAvlHH-23" value="1" style="edgeLabel;resizable=0;html=1;align=left;verticalAlign=top;strokeColor=default;" connectable="0" vertex="1" parent="Q1jC649QyWr9QvPAvlHH-22">
          <mxGeometry x="830" y="122" as="geometry" />
        </mxCell>
        <mxCell id="Q1jC649QyWr9QvPAvlHH-24" value="*" style="edgeLabel;resizable=0;html=1;align=left;verticalAlign=top;strokeColor=default;" connectable="0" vertex="1" parent="Q1jC649QyWr9QvPAvlHH-22">
          <mxGeometry x="832" y="97" as="geometry" />
        </mxCell>
        <mxCell id="Q1jC649QyWr9QvPAvlHH-25" value="clients" style="edgeLabel;resizable=0;html=1;align=left;verticalAlign=top;strokeColor=default;" connectable="0" vertex="1" parent="Q1jC649QyWr9QvPAvlHH-22">
          <mxGeometry x="841" y="102" as="geometry" />
        </mxCell>
        <mxCell id="Q1jC649QyWr9QvPAvlHH-26" value="" style="html=1;rounded=1;edgeStyle=orthogonalEdgeStyle;dashed=1;startArrow=none;endArrow=block;endSize=12;strokeColor=#008200;exitX=0.250;exitY=0.001;exitDx=0;exitDy=0;entryX=0.750;entryY=1.001;entryDx=0;entryDy=0;" edge="1" parent="1" source="Q1jC649QyWr9QvPAvlHH-4" target="Q1jC649QyWr9QvPAvlHH-6">
          <mxGeometry width="50" height="50" relative="1" as="geometry">
            <Array as="points">
              <mxPoint x="792" y="112" />
              <mxPoint x="654" y="112" />
            </Array>
          </mxGeometry>
        </mxCell>
        <mxCell id="Q1jC649QyWr9QvPAvlHH-27" value="" style="html=1;rounded=1;edgeStyle=orthogonalEdgeStyle;dashed=0;startArrow=diamondThinstartSize=12;endArrow=openThin;endSize=12;strokeColor=#595959;exitX=0.500;exitY=0.001;exitDx=0;exitDy=0;entryX=0.250;entryY=1.001;entryDx=0;entryDy=0;" edge="1" parent="1" source="Q1jC649QyWr9QvPAvlHH-5" target="Q1jC649QyWr9QvPAvlHH-6">
          <mxGeometry width="50" height="50" relative="1" as="geometry">
            <Array as="points">
              <mxPoint x="651" y="122" />
              <mxPoint x="550" y="122" />
              <mxPoint x="550" y="112" />
              <mxPoint x="563" y="112" />
            </Array>
          </mxGeometry>
        </mxCell>
        <mxCell id="Q1jC649QyWr9QvPAvlHH-28" value="1" style="edgeLabel;resizable=0;html=1;align=left;verticalAlign=top;strokeColor=default;" connectable="0" vertex="1" parent="Q1jC649QyWr9QvPAvlHH-27">
          <mxGeometry x="640" y="127" as="geometry" />
        </mxCell>
        <mxCell id="Q1jC649QyWr9QvPAvlHH-29" value="1" style="edgeLabel;resizable=0;html=1;align=left;verticalAlign=top;strokeColor=default;" connectable="0" vertex="1" parent="Q1jC649QyWr9QvPAvlHH-27">
          <mxGeometry x="628" y="102" as="geometry" />
        </mxCell>
        <mxCell id="Q1jC649QyWr9QvPAvlHH-30" value="repository" style="edgeLabel;resizable=0;html=1;align=left;verticalAlign=top;strokeColor=default;" connectable="0" vertex="1" parent="Q1jC649QyWr9QvPAvlHH-27">
          <mxGeometry x="563" y="102" as="geometry" />
        </mxCell>
        <mxCell id="Q1jC649QyWr9QvPAvlHH-31" value="" style="html=1;rounded=1;edgeStyle=orthogonalEdgeStyle;dashed=0;startArrow=diamondThinstartSize=12;endArrow=openThin;endSize=12;strokeColor=#595959;exitX=0.500;exitY=0.002;exitDx=0;exitDy=0;entryX=0.500;entryY=1.002;entryDx=0;entryDy=0;" edge="1" parent="1" source="Q1jC649QyWr9QvPAvlHH-8" target="Q1jC649QyWr9QvPAvlHH-9">
          <mxGeometry width="50" height="50" relative="1" as="geometry">
            <Array as="points" />
          </mxGeometry>
        </mxCell>
        <mxCell id="Q1jC649QyWr9QvPAvlHH-32" value="1" style="edgeLabel;resizable=0;html=1;align=left;verticalAlign=top;strokeColor=default;" connectable="0" vertex="1" parent="Q1jC649QyWr9QvPAvlHH-31">
          <mxGeometry x="438" y="205" as="geometry" />
        </mxCell>
        <mxCell id="Q1jC649QyWr9QvPAvlHH-33" value="1" style="edgeLabel;resizable=0;html=1;align=left;verticalAlign=top;strokeColor=default;" connectable="0" vertex="1" parent="Q1jC649QyWr9QvPAvlHH-31">
          <mxGeometry x="438" y="185" as="geometry" />
        </mxCell>
        <mxCell id="Q1jC649QyWr9QvPAvlHH-34" value="portfolioService" style="edgeLabel;resizable=0;html=1;align=left;verticalAlign=top;strokeColor=default;" connectable="0" vertex="1" parent="Q1jC649QyWr9QvPAvlHH-31">
          <mxGeometry x="449" y="185" as="geometry" />
        </mxCell>
        <mxCell id="Q1jC649QyWr9QvPAvlHH-35" value="" style="html=1;rounded=1;edgeStyle=orthogonalEdgeStyle;dashed=0;startArrow=diamondThinstartSize=12;endArrow=openThin;endSize=12;strokeColor=#595959;exitX=0.500;exitY=0.001;exitDx=0;exitDy=0;entryX=0.250;entryY=1.001;entryDx=0;entryDy=0;" edge="1" parent="1" source="Q1jC649QyWr9QvPAvlHH-9" target="Q1jC649QyWr9QvPAvlHH-6">
          <mxGeometry width="50" height="50" relative="1" as="geometry">
            <Array as="points">
              <mxPoint x="449" y="132" />
              <mxPoint x="550" y="132" />
              <mxPoint x="550" y="112" />
              <mxPoint x="563" y="112" />
            </Array>
          </mxGeometry>
        </mxCell>
        <mxCell id="Q1jC649QyWr9QvPAvlHH-36" value="1" style="edgeLabel;resizable=0;html=1;align=left;verticalAlign=top;strokeColor=default;" connectable="0" vertex="1" parent="Q1jC649QyWr9QvPAvlHH-35">
          <mxGeometry x="510" y="112" as="geometry" />
        </mxCell>
        <mxCell id="Q1jC649QyWr9QvPAvlHH-37" value="1" style="edgeLabel;resizable=0;html=1;align=left;verticalAlign=top;strokeColor=default;" connectable="0" vertex="1" parent="Q1jC649QyWr9QvPAvlHH-35">
          <mxGeometry x="499" y="102" as="geometry" />
        </mxCell>
        <mxCell id="Q1jC649QyWr9QvPAvlHH-38" value="repositoryClient" style="edgeLabel;resizable=0;html=1;align=left;verticalAlign=top;strokeColor=default;" connectable="0" vertex="1" parent="Q1jC649QyWr9QvPAvlHH-35">
          <mxGeometry x="449" y="132" as="geometry" />
        </mxCell>
        <mxCell id="Q1jC649QyWr9QvPAvlHH-39" value="" style="html=1;rounded=1;edgeStyle=orthogonalEdgeStyle;dashed=0;startArrow=diamondThinstartSize=12;endArrow=openThin;endSize=12;strokeColor=#595959;exitX=0.500;exitY=0.001;exitDx=0;exitDy=0;entryX=0.750;entryY=1.001;entryDx=0;entryDy=0;" edge="1" parent="1" source="Q1jC649QyWr9QvPAvlHH-9" target="Q1jC649QyWr9QvPAvlHH-7">
          <mxGeometry width="50" height="50" relative="1" as="geometry">
            <Array as="points">
              <mxPoint x="449" y="122" />
              <mxPoint x="329" y="122" />
              <mxPoint x="329" y="112" />
              <mxPoint x="316" y="112" />
            </Array>
          </mxGeometry>
        </mxCell>
        <mxCell id="Q1jC649QyWr9QvPAvlHH-40" value="1" style="edgeLabel;resizable=0;html=1;align=left;verticalAlign=top;strokeColor=default;" connectable="0" vertex="1" parent="Q1jC649QyWr9QvPAvlHH-39">
          <mxGeometry x="438" y="127" as="geometry" />
        </mxCell>
        <mxCell id="Q1jC649QyWr9QvPAvlHH-41" value="1" style="edgeLabel;resizable=0;html=1;align=left;verticalAlign=top;strokeColor=default;" connectable="0" vertex="1" parent="Q1jC649QyWr9QvPAvlHH-39">
          <mxGeometry x="305" y="102" as="geometry" />
        </mxCell>
        <mxCell id="Q1jC649QyWr9QvPAvlHH-42" value="repositoryStock" style="edgeLabel;resizable=0;html=1;align=left;verticalAlign=top;strokeColor=default;" connectable="0" vertex="1" parent="Q1jC649QyWr9QvPAvlHH-39">
          <mxGeometry x="345" y="122" as="geometry" />
        </mxCell>
        <mxCell id="Q1jC649QyWr9QvPAvlHH-43" value="" style="html=1;rounded=1;edgeStyle=orthogonalEdgeStyle;dashed=0;startArrow=diamondThinstartSize=12;endArrow=openThin;endSize=12;strokeColor=#595959;exitX=0.500;exitY=0.002;exitDx=0;exitDy=0;entryX=0.500;entryY=1.002;entryDx=0;entryDy=0;" edge="1" parent="1" source="Q1jC649QyWr9QvPAvlHH-10" target="Q1jC649QyWr9QvPAvlHH-1">
          <mxGeometry width="50" height="50" relative="1" as="geometry">
            <Array as="points">
              <mxPoint x="-53" y="39" />
              <mxPoint x="385" y="39" />
            </Array>
          </mxGeometry>
        </mxCell>
        <mxCell id="Q1jC649QyWr9QvPAvlHH-44" value="1" style="edgeLabel;resizable=0;html=1;align=left;verticalAlign=top;strokeColor=default;" connectable="0" vertex="1" parent="Q1jC649QyWr9QvPAvlHH-43">
          <mxGeometry x="-64" y="39" as="geometry" />
        </mxCell>
        <mxCell id="Q1jC649QyWr9QvPAvlHH-45" value="*" style="edgeLabel;resizable=0;html=1;align=left;verticalAlign=top;strokeColor=default;" connectable="0" vertex="1" parent="Q1jC649QyWr9QvPAvlHH-43">
          <mxGeometry x="336" y="19" as="geometry" />
        </mxCell>
        <mxCell id="Q1jC649QyWr9QvPAvlHH-46" value="actions" style="edgeLabel;resizable=0;html=1;align=left;verticalAlign=top;strokeColor=default;" connectable="0" vertex="1" parent="Q1jC649QyWr9QvPAvlHH-43">
          <mxGeometry x="308" y="39" as="geometry" />
        </mxCell>
        <mxCell id="Q1jC649QyWr9QvPAvlHH-47" value="" style="html=1;rounded=1;edgeStyle=orthogonalEdgeStyle;dashed=0;startArrow=diamondThinstartSize=12;endArrow=openThin;endSize=12;strokeColor=#595959;exitX=0.500;exitY=0.002;exitDx=0;exitDy=0;entryX=0.500;entryY=1.002;entryDx=0;entryDy=0;" edge="1" parent="1" source="Q1jC649QyWr9QvPAvlHH-11" target="Q1jC649QyWr9QvPAvlHH-13">
          <mxGeometry width="50" height="50" relative="1" as="geometry">
            <Array as="points" />
          </mxGeometry>
        </mxCell>
        <mxCell id="Q1jC649QyWr9QvPAvlHH-48" value="1" style="edgeLabel;resizable=0;html=1;align=left;verticalAlign=top;strokeColor=default;" connectable="0" vertex="1" parent="Q1jC649QyWr9QvPAvlHH-47">
          <mxGeometry x="199" y="205" as="geometry" />
        </mxCell>
        <mxCell id="Q1jC649QyWr9QvPAvlHH-49" value="1" style="edgeLabel;resizable=0;html=1;align=left;verticalAlign=top;strokeColor=default;" connectable="0" vertex="1" parent="Q1jC649QyWr9QvPAvlHH-47">
          <mxGeometry x="199" y="185" as="geometry" />
        </mxCell>
        <mxCell id="Q1jC649QyWr9QvPAvlHH-50" value="stockExchangeService" style="edgeLabel;resizable=0;html=1;align=left;verticalAlign=top;strokeColor=default;" connectable="0" vertex="1" parent="Q1jC649QyWr9QvPAvlHH-47">
          <mxGeometry x="210" y="185" as="geometry" />
        </mxCell>
        <mxCell id="Q1jC649QyWr9QvPAvlHH-51" value="" style="html=1;rounded=1;edgeStyle=orthogonalEdgeStyle;dashed=1;startArrow=none;endArrow=block;endSize=12;strokeColor=#008200;exitX=0.750;exitY=0.001;exitDx=0;exitDy=0;entryX=0.250;entryY=1.001;entryDx=0;entryDy=0;" edge="1" parent="1" source="Q1jC649QyWr9QvPAvlHH-12" target="Q1jC649QyWr9QvPAvlHH-7">
          <mxGeometry width="50" height="50" relative="1" as="geometry">
            <Array as="points">
              <mxPoint x="14" y="132" />
              <mxPoint x="189" y="132" />
            </Array>
          </mxGeometry>
        </mxCell>
        <mxCell id="Q1jC649QyWr9QvPAvlHH-52" value="" style="html=1;rounded=1;edgeStyle=orthogonalEdgeStyle;dashed=0;startArrow=diamondThinstartSize=12;endArrow=openThin;endSize=12;strokeColor=#595959;exitX=0.250;exitY=0.001;exitDx=0;exitDy=0;entryX=0.500;entryY=1.001;entryDx=0;entryDy=0;" edge="1" parent="1" source="Q1jC649QyWr9QvPAvlHH-12" target="Q1jC649QyWr9QvPAvlHH-10">
          <mxGeometry width="50" height="50" relative="1" as="geometry">
            <Array as="points">
              <mxPoint x="-111" y="132" />
              <mxPoint x="-53" y="132" />
            </Array>
          </mxGeometry>
        </mxCell>
        <mxCell id="Q1jC649QyWr9QvPAvlHH-53" value="1" style="edgeLabel;resizable=0;html=1;align=left;verticalAlign=top;strokeColor=default;" connectable="0" vertex="1" parent="Q1jC649QyWr9QvPAvlHH-52">
          <mxGeometry x="-122" y="132" as="geometry" />
        </mxCell>
        <mxCell id="Q1jC649QyWr9QvPAvlHH-54" value="1" style="edgeLabel;resizable=0;html=1;align=left;verticalAlign=top;strokeColor=default;" connectable="0" vertex="1" parent="Q1jC649QyWr9QvPAvlHH-52">
          <mxGeometry x="-64" y="97" as="geometry" />
        </mxCell>
        <mxCell id="Q1jC649QyWr9QvPAvlHH-55" value="myStockExchange" style="edgeLabel;resizable=0;html=1;align=left;verticalAlign=top;strokeColor=default;" connectable="0" vertex="1" parent="Q1jC649QyWr9QvPAvlHH-52">
          <mxGeometry x="-53" y="102" as="geometry" />
        </mxCell>
        <mxCell id="Q1jC649QyWr9QvPAvlHH-56" value="" style="html=1;rounded=1;edgeStyle=orthogonalEdgeStyle;dashed=0;startArrow=diamondThinstartSize=12;endArrow=openThin;endSize=12;strokeColor=#595959;exitX=0.500;exitY=0.001;exitDx=0;exitDy=0;entryX=0.750;entryY=1.001;entryDx=0;entryDy=0;" edge="1" parent="1" source="Q1jC649QyWr9QvPAvlHH-13" target="Q1jC649QyWr9QvPAvlHH-7">
          <mxGeometry width="50" height="50" relative="1" as="geometry">
            <Array as="points">
              <mxPoint x="210" y="132" />
              <mxPoint x="329" y="132" />
              <mxPoint x="329" y="112" />
              <mxPoint x="316" y="112" />
            </Array>
          </mxGeometry>
        </mxCell>
        <mxCell id="Q1jC649QyWr9QvPAvlHH-57" value="1" style="edgeLabel;resizable=0;html=1;align=left;verticalAlign=top;strokeColor=default;" connectable="0" vertex="1" parent="Q1jC649QyWr9QvPAvlHH-56">
          <mxGeometry x="199" y="132" as="geometry" />
        </mxCell>
        <mxCell id="Q1jC649QyWr9QvPAvlHH-58" value="1" style="edgeLabel;resizable=0;html=1;align=left;verticalAlign=top;strokeColor=default;" connectable="0" vertex="1" parent="Q1jC649QyWr9QvPAvlHH-56">
          <mxGeometry x="264" y="112" as="geometry" />
        </mxCell>
        <mxCell id="Q1jC649QyWr9QvPAvlHH-59" value="repositoryStock" style="edgeLabel;resizable=0;html=1;align=left;verticalAlign=top;strokeColor=default;" connectable="0" vertex="1" parent="Q1jC649QyWr9QvPAvlHH-56">
          <mxGeometry x="316" y="92" as="geometry" />
        </mxCell>
      </root>
    </mxGraphModel>
  </diagram>
</mxfile>
